# xmcd CD database file
#
# Track frame offsets:
#	150
#	31536
#	47239
#	86492
#	99503
#	113474
#	127476
#	142376
#	155811
#	175206
#	208781
#	223189
#	248528
#
# Disc length: 3484 seconds
#
# Revision: 0
# Processed by: cddbd v1.5.1PL2 Copyright (c) Steve Scherf et al.
# Submitted via: CDex 1.51
#
DISCID=be0d9a0d
DTITLE=Various Artist - Jazz Saxophone - Disk 2
DYEAR=2004
DGENRE=Jazz
TTITLE0=1-Cannonball Adderly - We'll be together again
TTITLE1=2-Gigi Gryce - You'll always be the one I love
TTITLE2=3-Wilbur Harden/John Coltrane - Dial Africa
TTITLE3=4-Art Pepper - Surf Ride
TTITLE4=5-Unknown - Chili Pepper(alternate)
TTITLE5=6-Charles Parker - Steeplechase
TTITLE6=7-Dexter Gordon - I can't escape from You
TTITLE7=8-Stan Getz - Bebop in pastel
TTITLE8=9-Yuseff Lateef - Valse Bouk
TTITLE9=10-John Coltrane - Count down
TTITLE10=11-Coleman Hawkins - On my way
TTITLE11=12-Coleman Hawkins - I've grown accustomed to her face
TTITLE12=13-Art Pepper - Straight live
EXTD=YEAR: 2004
EXTT0=
EXTT1=
EXTT2=
EXTT3=
EXTT4=
EXTT5=
EXTT6=
EXTT7=
EXTT8=
EXTT9=
EXTT10=
EXTT11=
EXTT12=
PLAYORDER=
